{"asset":{"version":"2.0","generator":"Codex + Monolith","extras":{"comment":"可复用的桃花光环环带网格；glTF 使用米制，导入 UE 后外半径为 100 厘米。"}},"buffers":[{"byteLength":7296,"uri":"data:application/octet-stream;base64,"}],"bufferViews":[{"buffer":0,"byteOffset":0,"byteLength":2304,"target":34962},{"buffer":0,"byteOffset":2304,"byteLength":2304,"target":34962},{"buffer":0,"byteOffset":4608,"byteLength":1536,"target":34962},{"buffer":0,"byteOffset":6144,"byteLength":1152,"target":34963}],"accessors":[{"bufferView":0,"componentType":5126,"count":192,"type":"VEC3","min":[-1,-1,0],"max":[1,1,0]},{"bufferView":1,"componentType":5126,"count":192,"type":"VEC3"},{"bufferView":2,"componentType":5126,"count":192,"type":"VEC2","min":[0,0],"max":[1,1]},{"bufferView":3,"componentType":5123,"count":576,"type":"SCALAR","min":[0],"max":[191]}],"meshes":[{"name":"SM_VFX_PetalAura_Annulus","extras":{"comment":"供双层地面光环组件复用。"},"primitives":[{"attributes":{"POSITION":0,"NORMAL":1,"TEXCOORD_0":2},"indices":3,"mode":4}]}],"nodes":[{"mesh":0,"name":"SM_VFX_PetalAura_Annulus"}],"scenes":[{"nodes":[0]}],"scene":0}
